<svg xmlns="http://www.w3.org/2000/svg" version="1.1" clip-rule="evenodd" fill-rule="evenodd" stroke-linejoin="round"
    stroke-miterlimit="2" viewBox="0 0 1890 1890" width="1890" height="1890">
    <metadata>
        <rdf:RDF xmlns:rdf="http://www.w3.org/1999/02/22-rdf-syntax-ns#" xmlns:dc="http://purl.org/dc/elements/1.1/">
            <rdf:Description>
                <dc:creator>RealFaviconGenerator</dc:creator>
                <dc:source>https://realfavicongenerator.net</dc:source>
            </rdf:Description>
        </rdf:RDF>
    </metadata>
    <g transform="translate(-926.07 -353.3)">
        <g transform="scale(4.1667)">
            <g transform="matrix(.21804 0 0 .21804 26.329 49.006)">
                <rect x="898.59" y="164.14" width="2080" height="2080" fill="#fff"></rect>
            </g>
            <g transform="matrix(-1 0 0 1 868.7 -423.14)">
                <rect x="431.58" y="543.68" width="5.532" height="44.438" fill="#1d1d1b"></rect>
            </g>
            <g transform="matrix(-1 0 0 1 887.35 -462.18)">
                <rect x="440.91" y="566" width="5.532" height="38.829" fill="#1d1d1b"></rect>
            </g>
            <g transform="matrix(-1 0 0 1 848.52 -441.65)">
                <rect x="421.49" y="552.94" width="5.532" height="44.439" fill="#1d1d1b"></rect>
            </g>
            <g transform="matrix(.86544 -.501 -.501 -.86544 386.65 172.72)">
                <path
                    d="m-3.471-0.932c3.826 0 6.928 3.102 6.927 6.927 0 3.826-3.101 6.927-6.927 6.927-3.825 0-6.927-3.102-6.927-6.927 0-3.826 3.102-6.927 6.927-6.927"
                    fill="#1d1d1b" fill-rule="nonzero"></path>
            </g>
            <g transform="matrix(.86552 .50087 .50087 -.86552 480.36 172.71)">
                <path
                    d="m3.47-0.932c3.826 1e-3 6.927 3.102 6.927 6.928-1e-3 3.825-3.102 6.927-6.927 6.927-3.826-1e-3 -6.927-3.102-6.928-6.927 1e-3 -3.826 3.101-6.928 6.928-6.928"
                    fill="#1d1d1b" fill-rule="nonzero"></path>
            </g>
            <g transform="translate(632.25 394.02)">
                <path
                    d="m0-82.992c-10.228 22.975-34.938 38.625-63.592 40.359 17.263-25.876 27.342-56.953 27.342-90.392 0-4.6-0.259-9.135-0.633-13.638h31.671c2.163 3.85 18.451 33.935 5.212 63.671m-73.528 40.36c18.312-25.447 29.132-56.648 29.132-90.393 0-4.603-0.274-9.138-0.668-13.638h4.679c0.382 4.502 0.648 9.037 0.648 13.638 0 33.623-10.42 64.799-28.173 90.527-1.86 0.021-3.734-0.036-5.618-0.134m-79.85 62.486h-20.775c38.688-6.34 72.555-26.985 95.979-56.354 1.871 0.151 3.755 0.349 5.601 0.409-20.149 26.313-48.294 46.17-80.805 55.945m-91.661 0c-11.57-3.464-22.623-8.129-32.933-13.977 0.895-1.277 1.789-2.554 2.683-3.83 15.535 8.752 32.747 14.84 51.006 17.807h-20.756zm-58.692 66.237c0 12.964-8.728 23.232-22.334 23.232-13.737 0-22.337-10.268-22.337-23.232 0-12.968 8.6-23.235 22.337-23.235 13.606 0 22.334 10.267 22.334 23.235m105.65-210.36c3.118 0 5.646 2.528 5.646 5.646s-2.528 5.646-5.646 5.646-5.646-2.528-5.646-5.646 2.528-5.646 5.646-5.646m-23.477-20.721c-4.327 0-7.836-3.508-7.836-7.835 0-4.328 3.509-7.836 7.836-7.836s7.835 3.508 7.835 7.836c0 4.327-3.508 7.835-7.835 7.835m53.16-25.399c4.327 0 7.835 3.507 7.835 7.835 0 4.327-3.508 7.835-7.835 7.835-4.328 0-7.835-3.508-7.835-7.835 0-4.328 3.507-7.835 7.835-7.835m172.05 15.08h-41.464c-2.684-19.601-8.812-38.105-17.815-54.846h-3.983c9.226 16.681 15.522 35.195 18.276 54.846h-4.709c-2.856-19.723-9.395-38.252-18.94-54.846h-38.418c16.991 21.11 27.179 47.926 27.179 77.134 0 68.01-55.132 123.14-123.14 123.14-20.8 0-40.366-5.204-57.548-14.308 3.213-4.585 6.425-9.171 9.636-13.755 12.68 6.402 26.771 10.414 41.721 11.289 0.583 3.235 3.407 5.692 6.811 5.692 3.431 0 6.271-2.497 6.823-5.771 14.511-1.001 28.223-4.906 40.558-11.142 2.085 2.723 5.913 3.545 8.96 1.782 3.08-1.784 4.269-5.573 2.878-8.758 11.517-7.832 21.415-17.862 29.1-29.485 3.236 1.573 7.184 0.406 9.014-2.757 1.842-3.184 0.861-7.219-2.16-9.228 5.987-12.258 9.687-25.835 10.553-40.179 3.734-0.106 6.729-3.158 6.729-6.917 0-3.777-3.024-6.841-6.781-6.92-0.975-14.29-4.775-27.794-10.847-39.974 3.288-1.925 4.407-6.146 2.496-9.447-1.917-3.311-6.154-4.441-9.466-2.524-2e-3 1e-3 -3e-3 2e-3 -5e-3 3e-3 -4.375-6.499-9.442-12.493-15.099-17.876h-3.383c6.322 5.741 11.937 12.244 16.708 19.358-1.865 2.171-2.26 5.363-0.745 7.98 1.523 2.631 4.51 3.878 7.335 3.321 6.031 12.017 9.801 25.357 10.743 39.484-2.79 0.895-4.811 3.508-4.811 6.595 0 3.107 2.046 5.736 4.863 6.614-0.83 14.122-4.469 27.486-10.37 39.545-2.943-0.772-6.153 0.465-7.751 3.226-1.61 2.782-1.062 6.214 1.117 8.378-7.518 11.388-17.205 21.216-28.48 28.891-2.147-2.351-5.71-2.981-8.579-1.321-2.901 1.68-4.128 5.142-3.097 8.2-12.011 6.064-25.355 9.873-39.476 10.869-0.539-3.289-3.386-5.801-6.827-5.801-3.47 0-6.335 2.554-6.84 5.882-14.453-0.87-28.082-4.743-40.368-10.898 15.982-22.813 31.964-45.627 47.946-68.44 2.755 3.917 5.511 7.834 8.266 11.751l9.505-9.048c-3.281-4.672-6.563-9.346-9.843-14.018 7.308-10.431 14.615-20.863 21.924-31.295 6.341-0.135 11.448-5.297 11.448-11.672 0-1.31-0.265-2.549-0.662-3.725 0.121-0.171 0.241-0.343 0.362-0.515 4.965-10.979 9.929-21.958 14.894-32.937-8.528 8.516-17.056 17.034-25.583 25.551-0.24-0.015-0.466-0.072-0.708-0.072-6.46 0-11.698 5.238-11.698 11.698 0 1.651 0.35 3.218 0.968 4.642-6.302 8.997-12.602 17.994-18.904 26.991-4.191-5.969-8.384-11.939-12.575-17.908 0.458-1.252 0.746-2.586 0.746-3.996 0-6.461-5.237-11.698-11.697-11.698-0.496 0-0.968 0.086-1.448 0.146-4.421-2.905-8.841-5.811-13.261-8.716 1.469 4.947 2.936 9.894 4.405 14.841-0.86 1.628-1.393 3.456-1.393 5.427 0 6.46 5.236 11.697 11.697 11.697 0.143 0 0.276-0.037 0.418-0.042l15.176 21.576c-17.105 24.423-34.209 48.847-51.314 73.27-11.329-7.583-21.089-17.326-28.693-28.638 2.82-2.064 3.689-5.963 1.899-9.055-1.791-3.093-5.607-4.281-8.801-2.862-5.979-12.084-9.689-25.488-10.558-39.666 3.43-0.414 6.091-3.33 6.091-6.872 0-3.522-2.631-6.423-6.033-6.863 0.979-14.143 4.794-27.492 10.873-39.509 3.111 1.167 6.699-0.041 8.419-3.013 1.698-2.934 0.999-6.592-1.485-8.722 4.663-6.83 10.11-13.086 16.217-18.631h-3.383c-5.532 5.264-10.498 11.115-14.806 17.447-3.138-1.241-6.794-0.041-8.534 2.967-1.72 2.972-0.979 6.685 1.583 8.801-6.275 12.382-10.197 26.15-11.173 40.737-3.157 0.645-5.532 3.438-5.532 6.786 0 3.328 2.348 6.106 5.478 6.773 0.867 14.678 4.708 28.552 10.927 41.035-2.311 2.153-2.923 5.684-1.274 8.533 1.651 2.851 5.021 4.079 8.04 3.144 7.783 11.648 17.798 21.677 29.437 29.476-3.176 4.534-6.352 9.069-9.528 13.604-32.807-22.121-54.387-59.623-54.387-102.17 0-29.208 10.189-56.024 27.18-77.134h-38.418c-13.07 22.72-20.583 49.042-20.583 77.134 0 53.327 26.943 100.36 67.952 128.24-0.89 1.272-1.781 2.543-2.671 3.815-42.21-28.723-69.939-77.144-69.939-132.05 0-27.981 7.22-54.267 19.869-77.134h-3.984c-12.352 22.968-19.373 49.229-19.373 77.134 0 56.088 28.318 105.55 71.427 134.91-10.118 14.457-20.236 28.914-30.355 43.372-1.526-0.152-3.081-0.239-4.67-0.239-24.39 0-41.461 18.098-41.461 41.077 0 22.976 17.071 41.076 41.461 41.076 24.261 0 41.461-18.1 41.461-41.076 0-16.719-9.131-30.814-23.437-37.275l28.061-40.073c7.619 4.343 15.655 8.019 23.975 11.111h-14.834v11.286h143.41v-11.286h-14.999c29.875-11.137 55.611-30.772 74.258-55.975 42.054-0.237 76.452-23.51 85.539-54.167 9.129-30.799-10.015-59.652-13.717-65.025"
                    fill="#1d1d1b" fill-rule="nonzero"></path>
            </g>
        </g>
    </g>
</svg>